<svg xmlns="http://www.w3.org/2000/svg" viewBox="0 0 478.4 430.21"><defs><style>.cls-1{fill:#ff8400;stroke:#ff8400;stroke-miterlimit:10;stroke-width:14px;}</style></defs><title>Asset 2</title><g id="Layer_2" data-name="Layer 2"><g id="Layer_1-2" data-name="Layer 1"><path class="cls-1" d="M7,194.71V7H33.19V175.94h48v18.77Z"/><path class="cls-1" d="M256.58,194.71V7h26.19V175.94h48v18.77Z"/><path class="cls-1" d="M360.16,194.71,400,7h25.26l40.09,187.71h-24.8l-5.12-28.22-45.42.44-5.31,27.78Zm32.95-43.54,39.57-.21L412.76,44.08Z"/><path class="cls-1" d="M7,423.21V235.5H33.19V404.44h48v18.77Z"/><path class="cls-1" d="M246,423.21V235.5h17.84l53.3,124.68V235.5H339V423.21H322.27l-54-128.15V423.21Z"/><path class="cls-1" d="M375,423.21V235.5h40.79q20.86,0,33,6.37A36.59,36.59,0,0,1,466.18,261q5.21,12.75,5.21,31.75V361.8q0,19.93-5.21,33.6a40,40,0,0,1-16.92,20.74q-11.7,7.07-31.4,7.07Zm26.19-18.77H416q14.37,0,20.39-5.56t7.3-16.22A221.46,221.46,0,0,0,445,356.93V296q0-14.6-1.85-23.64T435,259.14q-6.26-4.17-19.7-4.17H401.18Z"/><path class="cls-1" d="M110.58,194.71,150.44,7H175.7l40.09,187.71H191l-5.12-28.22-45.42.44-5.31,27.78Zm32.95-43.54L183.1,151,163.19,44.08Z"/><path class="cls-1" d="M110,423.21,149.87,235.5h25.26l40.09,187.71h-24.8L185.3,395l-45.42.44-5.31,27.78ZM143,379.66l39.57-.21L162.61,272.58Z"/><path class="cls-1" d="M110.58,194.71,150.44,7H175.7l40.09,187.71H191l-5.12-28.22-45.42.44-5.31,27.78Zm32.95-43.54L183.1,151,163.19,44.08Z"/></g></g></svg>