<svg xmlns="http://www.w3.org/2000/svg" viewBox="0 0 500.55 447.76"><defs><style>.cls-1{fill:#1a1a1a;stroke:#1a1a1a;}.cls-1,.cls-2{stroke-miterlimit:10;stroke-width:14px;}.cls-2{fill:#ff8400;stroke:#ff8400;}</style></defs><title>Asset 6</title><g id="Layer_2" data-name="Layer 2"><g id="Layer_1-2" data-name="Layer 1"><path class="cls-1" d="M29.16,212.26V24.55H55.34V193.49h48v18.77Z"/><path class="cls-1" d="M278.73,212.26V24.55h26.19V193.49h48v18.77Z"/><path class="cls-1" d="M382.32,212.26,422.18,24.55h25.26l40.09,187.71h-24.8L457.61,184l-45.42.44-5.31,27.78Zm32.95-43.54,39.57-.21L434.92,61.63Z"/><path class="cls-1" d="M29.16,440.76V253.05H55.34V422h48v18.77Z"/><path class="cls-1" d="M268.19,440.76V253.05H286l53.3,124.68V253.05h21.78V440.76H344.43l-54-128.15V440.76Z"/><path class="cls-1" d="M397.15,440.76V253.05h40.79q20.86,0,33,6.37a36.59,36.59,0,0,1,17.38,19.12q5.21,12.75,5.21,31.75v69.06q0,19.93-5.21,33.6a40,40,0,0,1-16.92,20.74q-11.7,7.07-31.4,7.07ZM423.34,422h14.83q14.37,0,20.39-5.56t7.3-16.22a221.46,221.46,0,0,0,1.27-25.72V313.53q0-14.6-1.85-23.64t-8.11-13.21q-6.26-4.17-19.7-4.17H423.34Z"/><path class="cls-1" d="M132.74,212.26,172.6,24.55h25.26l40.09,187.71h-24.8L208,184l-45.42.44-5.31,27.78Zm32.95-43.54,39.57-.21L185.35,61.63Z"/><path class="cls-1" d="M132.17,440.76,172,253.05h25.26l40.09,187.71h-24.8l-5.12-28.22L162,413l-5.31,27.78Zm32.95-43.54,39.57-.21L184.77,290.13Z"/><path class="cls-1" d="M132.74,212.26,172.6,24.55h25.26l40.09,187.71h-24.8L208,184l-45.42.44-5.31,27.78Zm32.95-43.54,39.57-.21L185.35,61.63Z"/><path class="cls-2" d="M7,194.71V7H33.19V175.94h48v18.77Z"/><path class="cls-2" d="M256.58,194.71V7h26.19V175.94h48v18.77Z"/><path class="cls-2" d="M360.16,194.71,400,7h25.26l40.09,187.71h-24.8l-5.12-28.22-45.42.44-5.31,27.78Zm32.95-43.54,39.57-.21L412.76,44.08Z"/><path class="cls-2" d="M7,423.21V235.5H33.19V404.44h48v18.77Z"/><path class="cls-2" d="M246,423.21V235.5h17.84l53.3,124.68V235.5H339V423.21H322.27l-54-128.15V423.21Z"/><path class="cls-2" d="M375,423.21V235.5h40.79q20.86,0,33,6.37A36.59,36.59,0,0,1,466.18,261q5.21,12.75,5.21,31.75V361.8q0,19.93-5.21,33.6a40,40,0,0,1-16.92,20.74q-11.7,7.07-31.4,7.07Zm26.19-18.77H416q14.37,0,20.39-5.56t7.3-16.22A221.46,221.46,0,0,0,445,356.93V296q0-14.6-1.85-23.64T435,259.14q-6.26-4.17-19.7-4.17H401.18Z"/><path class="cls-2" d="M110.58,194.71,150.44,7H175.7l40.09,187.71H191l-5.12-28.22-45.42.44-5.31,27.78Zm32.95-43.54L183.1,151,163.19,44.08Z"/><path class="cls-2" d="M110,423.21,149.87,235.5h25.26l40.09,187.71h-24.8L185.3,395l-45.42.44-5.31,27.78ZM143,379.66l39.57-.21L162.61,272.58Z"/><path class="cls-2" d="M110.58,194.71,150.44,7H175.7l40.09,187.71H191l-5.12-28.22-45.42.44-5.31,27.78Zm32.95-43.54L183.1,151,163.19,44.08Z"/></g></g></svg>