<?xml version="1.0" encoding="UTF-8"?>
<svg id="Layer_2" data-name="Layer 2" xmlns="http://www.w3.org/2000/svg" viewBox="0 0 503.03 451.17">
  <defs>
    <style>
      .cls-1 {
        fill: #ff8400;
        stroke: #ff8400;
        stroke-width: 14px;
      }

      .cls-1, .cls-2 {
        stroke-miterlimit: 10;
      }

      .cls-2 {
        fill: #fcfaf3;
        stroke: #fcfaf3;
        stroke-width: 12px;
      }
    </style>
  </defs>
  <g id="Layer_1-2" data-name="Layer 1">
    <g>
      <g>
        <path class="cls-2" d="M32.38,445.17v-187.71h26.19v168.94h47.97v18.77H32.38Z"/>
        <path class="cls-2" d="M268.71,445.17v-187.71h17.84l53.3,124.68v-124.68h21.78v187.71h-16.68l-54-128.15v128.15h-22.25Z"/>
        <path class="cls-2" d="M400.37,445.17v-187.71h40.79c13.9,0,24.91,2.13,33.02,6.37,8.11,4.25,13.9,10.62,17.38,19.12,3.48,8.5,5.21,19.08,5.21,31.75v69.06c0,13.29-1.74,24.49-5.21,33.6-3.48,9.12-9.12,16.03-16.92,20.74-7.8,4.71-18.27,7.07-31.4,7.07h-42.87ZM426.56,426.4h14.83c9.58,0,16.37-1.85,20.39-5.56,4.01-3.71,6.45-9.11,7.3-16.22.85-7.1,1.28-15.68,1.28-25.72v-60.95c0-9.73-.62-17.61-1.85-23.64-1.24-6.03-3.94-10.43-8.11-13.21-4.17-2.78-10.74-4.17-19.7-4.17h-14.14v149.47Z"/>
      </g>
      <g>
        <path class="cls-2" d="M32.38,218.96V31.25h26.19v168.94h47.97v18.77H32.38Z"/>
        <path class="cls-2" d="M114.18,218.96L154.04,31.25h25.26l40.09,187.71h-24.8l-4.65-25.65h-44.92l-6.28,25.65h-24.56ZM144.52,177.35h42.25l-14.59-84.6c-1.05-6.02-9.69-6-10.73.01l-16.93,84.59Z"/>
        <path class="cls-2" d="M240.86,161.02v-18.77h34v18.77h-34Z"/>
        <path class="cls-2" d="M308.6,218.96V31.25h26.19v168.94h47.97v18.77h-74.16Z"/>
        <path class="cls-2" d="M390.4,218.96l39.86-187.71h25.26l40.09,187.71h-24.8l-4.65-25.65h-44.92l-6.28,25.65h-24.56ZM420.75,177.35h42.25l-14.59-84.6c-1.05-6.02-9.69-6-10.73.01l-16.93,84.59Z"/>
      </g>
      <path class="cls-2" d="M133.49,445.17l39.86-187.71h25.26l40.09,187.71h-24.8l-4.65-25.65h-44.92l-6.28,25.65h-24.56ZM163.83,403.56h42.25l-14.59-84.6c-1.05-6.02-9.69-6-10.73.01l-16.93,84.59Z"/>
      <g>
        <path class="cls-1" d="M7,420.92v-187.71h26.19v168.94h47.97v18.77H7Z"/>
        <path class="cls-1" d="M243.33,420.92v-187.71h17.84l53.3,124.68v-124.68h21.78v187.71h-16.68l-54-128.15v128.15h-22.25Z"/>
        <path class="cls-1" d="M374.99,420.92v-187.71h40.79c13.9,0,24.91,2.13,33.02,6.37,8.11,4.25,13.9,10.62,17.38,19.12,3.48,8.5,5.21,19.08,5.21,31.75v69.06c0,13.29-1.74,24.49-5.21,33.6-3.48,9.12-9.12,16.03-16.92,20.74-7.8,4.71-18.27,7.07-31.4,7.07h-42.87ZM401.18,402.15h14.83c9.58,0,16.37-1.85,20.39-5.56,4.01-3.71,6.45-9.11,7.3-16.22.85-7.1,1.28-15.68,1.28-25.72v-60.95c0-9.73-.62-17.61-1.85-23.64-1.24-6.03-3.94-10.43-8.11-13.21-4.17-2.78-10.74-4.17-19.7-4.17h-14.14v149.47Z"/>
      </g>
      <g>
        <path class="cls-1" d="M7,194.71V7h26.19v168.94h47.97v18.77H7Z"/>
        <path class="cls-1" d="M88.8,194.71L128.66,7h25.26l40.09,187.71h-24.8l-4.65-25.65h-44.92l-6.28,25.65h-24.56ZM119.15,153.1h42.25l-14.59-84.6c-1.05-6.02-9.69-6-10.73.01l-16.93,84.59Z"/>
        <path class="cls-1" d="M215.48,136.77v-18.77h34v18.77h-34Z"/>
        <path class="cls-1" d="M283.22,194.71V7h26.19v168.94h47.97v18.77h-74.16Z"/>
        <path class="cls-1" d="M365.02,194.71L404.88,7h25.26l40.09,187.71h-24.8l-4.65-25.65h-44.92l-6.28,25.65h-24.56ZM395.37,153.1h42.25l-14.59-84.6c-1.05-6.02-9.69-6-10.73.01l-16.93,84.59Z"/>
      </g>
      <path class="cls-1" d="M108.11,420.92l39.86-187.71h25.26l40.09,187.71h-24.8l-4.65-25.65h-44.92l-6.28,25.65h-24.56ZM138.45,379.31h42.25l-14.59-84.6c-1.05-6.02-9.69-6-10.73.01l-16.93,84.59Z"/>
    </g>
  </g>
</svg>