<svg xmlns="http://www.w3.org/2000/svg" viewBox="0 0 503.03 451.17"><defs><style>.cls-1{fill:#1a1a1a;stroke:#1a1a1a;stroke-width:12px;}.cls-1,.cls-2{stroke-miterlimit:10;}.cls-2{fill:#ff8400;stroke:#ff8400;stroke-width:14px;}</style></defs><title>Asset 8</title><g id="Layer_2" data-name="Layer 2"><g id="Layer_1-2" data-name="Layer 1"><path class="cls-1" d="M32.38,445.17V257.46H58.57V426.4h48v18.77Z"/><path class="cls-1" d="M268.71,445.17V257.46h17.84l53.3,124.68V257.46h21.78V445.17H344.95L291,317V445.17Z"/><path class="cls-1" d="M400.37,445.17V257.46h40.79q20.86,0,33,6.37a36.59,36.59,0,0,1,17.38,19.12q5.21,12.75,5.21,31.75v69.06q0,19.93-5.21,33.6a40.05,40.05,0,0,1-16.92,20.74q-11.71,7.07-31.4,7.07Zm26.19-18.77h14.83q14.37,0,20.39-5.56t7.3-16.22a221.45,221.45,0,0,0,1.28-25.72V317.94q0-14.6-1.85-23.64t-8.11-13.21q-6.26-4.17-19.7-4.17H426.56Z"/><path class="cls-1" d="M32.38,219V31.25H58.56V200.19h48V219Z"/><path class="cls-1" d="M114.18,219,154,31.25H179.3L219.39,219h-24.8l-4.65-25.65H145L138.74,219Zm30.35-41.61h42.25l-14.59-84.6a5.44,5.44,0,0,0-10.73,0Z"/><path class="cls-1" d="M240.86,161V142.25h34V161Z"/><path class="cls-1" d="M308.6,219V31.25h26.19V200.19h48V219Z"/><path class="cls-1" d="M390.4,219,430.26,31.25h25.26L495.61,219h-24.8l-4.65-25.65H421.25L415,219Zm30.35-41.61H463l-14.59-84.6a5.44,5.44,0,0,0-10.73,0Z"/><path class="cls-1" d="M133.49,445.17l39.86-187.71h25.26L238.7,445.17H213.9l-4.65-25.65H164.33l-6.28,25.65Zm30.35-41.61h42.25L191.5,319a5.44,5.44,0,0,0-10.73,0Z"/><path class="cls-2" d="M7,420.92V233.21H33.19V402.15h48v18.77Z"/><path class="cls-2" d="M243.33,420.92V233.21h17.84l53.3,124.68V233.21h21.78V420.92H319.57l-54-128.15V420.92Z"/><path class="cls-2" d="M375,420.92V233.21h40.79q20.86,0,33,6.37a36.59,36.59,0,0,1,17.38,19.12q5.21,12.75,5.21,31.75v69.06q0,19.93-5.21,33.6a40.05,40.05,0,0,1-16.92,20.74q-11.71,7.07-31.4,7.07Zm26.19-18.77H416q14.37,0,20.39-5.56t7.3-16.22A221.45,221.45,0,0,0,445,354.64V293.69q0-14.6-1.85-23.64T435,256.85q-6.26-4.17-19.7-4.17H401.18Z"/><path class="cls-2" d="M7,194.71V7H33.19V175.94h48v18.77Z"/><path class="cls-2" d="M88.8,194.71,128.66,7h25.26L194,194.71h-24.8l-4.65-25.65H119.65l-6.28,25.65Zm30.35-41.61H161.4L146.81,68.5a5.44,5.44,0,0,0-10.73,0Z"/><path class="cls-2" d="M215.48,136.77V118h34v18.77Z"/><path class="cls-2" d="M283.22,194.71V7h26.19V175.94h48v18.77Z"/><path class="cls-2" d="M365,194.71,404.88,7h25.26l40.09,187.71h-24.8l-4.65-25.65H395.87l-6.28,25.65Zm30.35-41.61h42.25L423,68.5a5.44,5.44,0,0,0-10.73,0Z"/><path class="cls-2" d="M108.11,420.92,148,233.21h25.26l40.09,187.71h-24.8l-4.65-25.65H139l-6.28,25.65Zm30.35-41.61H180.7l-14.59-84.6a5.44,5.44,0,0,0-10.73,0Z"/></g></g></svg>