<svg xmlns="http://www.w3.org/2000/svg" viewBox="0 0 123.23 103.33"><title>Asset 1</title><g id="Layer_2" data-name="Layer 2"><g id="Layer_1-2" data-name="Layer 1"><path d="M79.83,76.3c.32-6.42,1.36-12.76.17-19.55l8.68-.46V99.94c-2.29.51-4.87,1.09-7.47,1.64a2,2,0,0,1-2.55-1.5q-2.87-7.26-5.95-14.43a35.81,35.81,0,0,0-2.41-4.08l-.57.22c0,1.85,0,3.7,0,5.55,0,4.55,0,9.11-.1,13.66a2.2,2.2,0,0,1-1.37,1.61c-2.24.38-4.52.5-6.93.72V58l9.91-1.35Z"/><path d="M95.08,56.86c7.68-1,15.33-1.76,22.67,1.44,3.61,1.57,4.15,5.27,4.91,8.54a26,26,0,0,1,.26,6.39c-.15,6.7-.3,13.4-.63,20.09-.19,3.78-2.68,6.28-5.93,7.42a44.84,44.84,0,0,1-10.25,1.92c-3,.3-6,0-9,0-1.12,0-1.78-.27-1.79-1.64-.11-14.42-.28-28.84-.43-43.26A6.35,6.35,0,0,1,95.08,56.86ZM105,93.13c1.42-.09,2.83-.14,4.22-.27,2.18-.19,3.71-1.11,3.7-3.58s-.08-5,0-7.55q.14-5.59.44-11.18c.26-4.87-1.57-5.9-6.28-5.6-.87.05-1.73.17-2.77.27Z"/><path d="M60.72,47.13c-2.86.32-5.57.69-8.29.87a2,2,0,0,1-1.5-1.13c-.71-1.87-1.26-3.8-1.79-5.73a1.75,1.75,0,0,0-2-1.53c-2.46.06-4.93,0-7.39-.13-1.69-.11-2.39.61-2.72,2.16s-.86,3.16-1.34,4.73c-.35,1.17-.85,1.51-2.29,1.15a59,59,0,0,0-7.71-.94c1.36-5.45,2.81-10.9,4.08-16.39,2-8.76,4-17.55,5.9-26.33.92-4.17,1.09-4.3,5.17-3.4A30.78,30.78,0,0,0,43.9,1c3.37.39,3.53.56,4.38,3.87,1.29,5,2.6,10,4,14.92a29.47,29.47,0,0,0,1.84,5c2.76,5.63,3.59,11.79,5,17.79C59.46,44,60.06,45.29,60.72,47.13ZM46.59,31.47l-3.4-12.39-.62.1L38.71,31.47Z"/><path d="M123.23,47.43c-3,0-5.56.07-8.07-.06a2,2,0,0,1-1.39-1.21c-.61-2.06-1-4.17-1.61-6.57-3.33,0-6.73-.06-10.13.07-.47,0-1.09.84-1.33,1.42-.82,2-1,4.77-2.39,5.81s-4,.07-6.07,0c-.81,0-1.61-.22-2.93-.41l12-46.09c3.13.29,6,.43,8.72.88a2.93,2.93,0,0,1,1.71,1.9c1.48,5.39,2.78,10.84,4.21,16.25,1.9,7.19,3.89,14.37,5.8,21.56C122.28,42.91,122.67,44.95,123.23,47.43ZM106.76,19l-.84-.05L102.5,30.55l7.55.86Z"/><path d="M36,55.86l8.91.85a2.07,2.07,0,0,1,2.06,1.9c1.88,8.34,3.78,16.68,5.82,25,1,3.94,2.29,7.8,3.37,11.71.69,2.5,1.26,5,1.92,7.74H49.38c-.77-2.1-1.52-4.41-2.49-6.63A2.7,2.7,0,0,0,45,95a56.92,56.92,0,0,0-7.55-.15c-.52,0-1.25,1-1.44,1.65-1.75,6.24-1.72,6.25-8.05,6-1,0-1.92,0-3,0ZM44,86.59c-.7-2.14-1.38-4-1.93-5.95s-1-3.76-1.43-5.64l-.6.06L37.82,87.2Z"/><path d="M63.61,47.53V1.08c3.3,0,6.5-.05,9.69,0,1.4,0,2.14,2.89,1.28,4.56a4.55,4.55,0,0,0-.66,2c.06,4.62.28,9.23.3,13.85,0,4.17-.14,8.33-.24,12.5,0,1-.14,2.07-.23,3.49H87.11l.82,10.05Z"/><path d="M.35,1.48H10.44V37.6H23.55c.27,2.94.56,5.82.78,8.71.1,1.32-.65,1.85-1.94,1.85-7.3,0-14.61,0-22,0Z"/><path d="M9.34,93.6H22.8l.76,9.51H0V57.46H9.34Z"/></g></g></svg>