<?xml version="1.0" encoding="UTF-8"?>
<svg id="Layer_2" data-name="Layer 2" xmlns="http://www.w3.org/2000/svg" viewBox="0 0 301.95 87.54">
  <defs>
    <style>
      .cls-1 {
        fill: #fdfaf3;
      }

      .cls-2 {
        opacity: .5;
      }

      .cls-3 {
        fill: #191919;
      }
    </style>
  </defs>
  <g id="Layer_1-2" data-name="Layer 1">
    <g>
      <path class="cls-1" d="M5,81.85V5.69h31.77c8.31,0,14.57,1.52,18.77,4.56,4.2,3.04,6.3,7.49,6.3,13.35v35.65c0,7.21-1.91,12.78-5.74,16.7-3.83,3.92-10.53,5.88-20.12,5.88H5ZM28.23,68.39h4c4.24,0,6.37-1.36,6.37-4.07V25.03c0-2.54-.52-4.18-1.54-4.91-1.03-.74-3.12-1.1-6.27-1.1h-2.56v49.37Z"/>
      <g class="cls-2">
        <path class="cls-3" d="M36.77,5.69c8.31,0,14.57,1.52,18.77,4.56,4.2,3.04,6.3,7.49,6.3,13.35v35.65c0,7.21-1.91,12.78-5.74,16.7-3.83,3.92-10.53,5.88-20.12,5.88H5V5.69h31.77M28.23,68.39h4c4.24,0,6.37-1.36,6.37-4.07V25.03c0-2.54-.52-4.18-1.54-4.91-1.03-.74-3.12-1.1-6.27-1.1h-2.56v49.37M36.77.69H0v86.15h35.98c11.09,0,18.84-2.42,23.69-7.39,4.75-4.87,7.16-11.67,7.16-20.19V23.61c0-7.41-2.89-13.43-8.37-17.4-5.12-3.71-12.22-5.52-21.7-5.52h0ZM33.23,63.35V24.13c.12.01.24.03.34.04.02.23.03.51.03.86v38.28c-.11.01-.23.03-.37.04h0Z"/>
      </g>
    </g>
    <g>
      <path class="cls-1" d="M75.29,81.85V5.69h46.2v14.71h-22.71v14.84h21.79v14.32h-21.79v17.44h24.22v14.84h-47.71Z"/>
      <g class="cls-2">
        <path class="cls-3" d="M121.49,5.69v14.71h-22.71v14.84h21.79v14.32h-21.79v17.44h24.22v14.84h-47.71V5.69h46.2M126.49.69h-56.2v86.15h57.71v-24.84h-24.22v-7.44h21.79v-24.32h-21.79v-4.84h22.71V.69h0Z"/>
      </g>
    </g>
    <g>
      <path class="cls-1" d="M136.62,81.85V5.69h35.18l9.71,46.43,9.65-46.43h35.51v76.15h-21.13V26.98l-13.26,54.87h-20.74l-14.04-54.87v54.87h-20.87Z"/>
      <g class="cls-2">
        <path class="cls-3" d="M226.66,5.69v76.15h-21.13V26.98l-13.26,54.87h-20.74l-14.04-54.87v54.87h-20.87V5.69h35.18l9.71,46.43,9.65-46.43h35.51M231.66.69h-44.57l-.83,3.98-4.77,22.95-4.8-22.96-.83-3.98h-44.24v86.15h30.87v-20.17l4.2,16.41.96,3.76h28.56l.92-3.83,3.4-14.06v17.88h31.13V.69h0Z"/>
      </g>
    </g>
    <g>
      <path class="cls-1" d="M268.47,82.54c-9.23,0-16.29-1.84-21.17-5.52-4.88-3.68-7.32-8.99-7.32-15.95V24.9c0-6.52,2.42-11.47,7.25-14.84,4.83-3.38,11.91-5.06,21.23-5.06s16.4,1.69,21.23,5.06c4.83,3.38,7.25,8.32,7.25,14.84v36.17c0,6.95-2.44,12.27-7.32,15.95-4.88,3.68-11.94,5.52-21.17,5.52ZM268.66,68.52c3.5,0,5.25-2.23,5.25-6.71V24.64c0-3.75-1.71-5.63-5.12-5.63-3.85,0-5.78,1.92-5.78,5.75v37.13c0,2.37.44,4.06,1.31,5.08.87,1.02,2.32,1.54,4.33,1.54Z"/>
      <g class="cls-2">
        <path class="cls-3" d="M268.47,5c9.32,0,16.4,1.69,21.23,5.06,4.83,3.38,7.25,8.32,7.25,14.84v36.17c0,6.95-2.44,12.27-7.32,15.95-4.88,3.68-11.94,5.52-21.17,5.52s-16.29-1.84-21.17-5.52c-4.88-3.68-7.32-8.99-7.32-15.95V24.9c0-6.52,2.42-11.47,7.25-14.84,4.83-3.38,11.91-5.06,21.23-5.06M268.66,68.52c3.5,0,5.25-2.24,5.25-6.71V24.64c0-3.75-1.71-5.63-5.12-5.63-3.85,0-5.78,1.92-5.78,5.75v37.13c0,2.37.44,4.06,1.31,5.08.87,1.02,2.32,1.54,4.33,1.54M268.47,0c-10.47,0-18.35,1.95-24.09,5.96-6.14,4.29-9.39,10.84-9.39,18.94v36.17c0,8.57,3.13,15.28,9.31,19.94,5.74,4.33,13.88,6.52,24.18,6.52s18.43-2.19,24.18-6.52c6.18-4.66,9.31-11.37,9.31-19.94V24.9c0-8.1-3.25-14.65-9.39-18.94-5.75-4.01-13.63-5.96-24.09-5.96h0ZM268.07,24.07c.16-.03.39-.05.73-.05.03,0,.06,0,.09,0,.02.16.03.36.03.62v37.17c0,.89-.1,1.42-.18,1.71-.02,0-.05,0-.08,0-.21,0-.38,0-.52-.02-.06-.31-.12-.82-.12-1.6V24.77c0-.32.02-.55.05-.7h0Z"/>
      </g>
    </g>
  </g>
</svg>