<?xml version="1.0" encoding="UTF-8"?>
<svg id="Layer_2" data-name="Layer 2" xmlns="http://www.w3.org/2000/svg" viewBox="0 0 446.95 87.32">
  <defs>
    <style>
      .cls-1 {
        fill: #189dc4;
      }

      .cls-2 {
        fill: #fff;
      }

      .cls-3 {
        fill: #199dc4;
      }

      .cls-4 {
        opacity: .5;
      }

      .cls-5 {
        fill: #191919;
      }
    </style>
  </defs>
  <g id="Layer_1-2" data-name="Layer 1">
    <g id="_4gLIHd.tif" data-name="4gLIHd.tif" class="cls-4">
      <g>
        <g>
          <path class="cls-2" d="M92.59,84.22c-9.37,0-10.86-1.51-11.42-2.08-.16-.16-.3-.34-.42-.53l-24.86-40.35v38.27c0,1.76-2.73,4.48-4.5,4.48h-14.47c-1.66,0-3-1.34-3-3V6c0-1.66,1.34-3,3-3h16.96c.2,0,.39.02.59.06,1.91.38,3.5,1.17,4.73,2.33.2.19.37.4.51.64l18.79,31.4.31-30.3c.01-1.06.58-2.04,1.5-2.57l2.01-1.16c.46-.26.97-.4,1.5-.4h15.96c.88,0,1.71.39,2.28,1.05.57.67.82,1.55.68,2.42-.54,3.36-.24,17.07.04,30.32.87,40.39.37,44.57-2.31,46.3-.56.36-1.73,1.12-7.89,1.12Z"/>
          <path class="cls-5" d="M99.78,6h0M99.78,6c-1.4,8.78,2.22,72.54-.93,74.58-.66.43-3.32.64-6.26.64-3.99,0-8.5-.39-9.28-1.18l-30.42-49.36v48.86c0,.1-1.39,1.48-1.5,1.48h-14.47V6h16.96c1.35.27,2.43.79,3.25,1.57l24.26,40.53.41-40.95,2.01-1.16h15.96M99.79,0h-15.97c-1.05,0-2.08.28-2.99.8l-2.01,1.16c-1.84,1.06-2.98,3.01-3.01,5.14l-.2,19.66-13.33-22.27c-.28-.47-.63-.9-1.02-1.27-1.65-1.56-3.74-2.6-6.2-3.1-.39-.08-.78-.12-1.18-.12h-16.96c-3.31,0-6,2.69-6,6v75.01c0,3.31,2.69,6,6,6h14.47c2.55,0,4.03-1.47,5.01-2.44.99-.98,2.49-2.46,2.49-5.04v-27.68l19.31,31.34c.24.39.52.74.83,1.06,1.1,1.11,2.93,2.97,13.56,2.97,6.5,0,8.32-.83,9.52-1.6,3.28-2.12,3.97-5.45,4.07-19.77.06-8.35-.17-18.91-.39-29.12-.26-12.33-.56-26.27-.1-29.64.07-.35.1-.72.1-1.09,0-3.31-2.68-6-6-6h0ZM99.78,12h0,0Z"/>
        </g>
        <g>
          <path class="cls-2" d="M289.35,84.01c-3.69,0-3.89-3.71-4.29-11.09-.22-4.09-.89-16.53-3.2-17.54h-18.45v25.63c0,1.66-1.34,3-3,3h-15.96c-1.66,0-3-1.34-3-3V6c0-1.66,1.34-3,3-3h45.89c.54,0,1.07.15,1.53.42,1.01.6,2.02,1.15,3,1.68,4.35,2.35,8.84,4.79,11.4,10.9,4.41,10.54,2.12,21.53-5.76,29.08,6.12,5.04,6.2,13.71,6.27,20.89.03,2.88.05,5.6.44,7.79.15.26.47.74.7,1.08,1.39,2.07,3.13,4.64,1.84,7.07-.42.79-1.49,2.1-3.96,2.1h-16.46ZM281.4,35.57c1.07-.54,3.65-2.38,4.29-3.13,1.22-2.21,1.11-5.3-.28-7.72-.63-1.08-2.05-2.89-4.53-2.89h-17.45v13.74h17.98Z"/>
          <path class="cls-5" d="M290.35,6c5.47,3.24,10.51,4.79,13.17,11.16,4.47,10.69,1.19,21.74-8.18,28.31,11.46,4.74,7.25,20.07,9,29.11.26,1.36,5.26,6.43,1.48,6.43h-16.46c-2.38,0,.4-28.62-7.48-28.62h-21.45v28.62h-15.96V6h45.89M260.42,38.57h21.45c.88,0,5.64-3.29,6.37-4.55,3.41-5.94-.26-15.19-7.37-15.19h-21.45c-.27.72,1,1.18,1,1.48v18.26M290.35,0h-45.89c-3.31,0-6,2.69-6,6v75.01c0,3.31,2.69,6,6,6h15.96c3.31,0,6-2.69,6-6v-22.62h13.83c1.19,3.1,1.62,11.08,1.82,14.7.13,2.47.25,4.6.46,6.29.83,6.64,4.63,7.63,6.82,7.63h16.46c4.19,0,6.02-2.58,6.61-3.7,2.14-4.02-.45-7.86-2-10.16-.1-.14-.21-.32-.32-.48-.26-1.87-.28-4.24-.31-6.73-.06-6.24-.14-14.86-5.1-20.9,7.09-8.27,8.86-19.45,4.36-30.21-2.96-7.08-8.16-9.9-12.74-12.38-.96-.52-1.95-1.06-2.9-1.62-.93-.55-1.98-.84-3.06-.84h0ZM266.42,24.83h14.45c.75,0,1.4.47,1.93,1.4.79,1.36.94,3.15.41,4.43-.59.53-1.79,1.39-2.62,1.91h-14.18v-7.74h0Z"/>
        </g>
        <g>
          <path class="cls-2" d="M432.37,84.25c-3.96,0-6.61-.38-7.88-1.13-2.22-1.31-3.1-4.59-4.21-8.74-.52-1.92-1.35-5.03-2.04-6.12-2.17-.15-9.45-.3-17.29-.3-3.63,0-5.9.04-7.22.08-.44,1.25-1.02,3.15-1.48,4.67-2.44,8-3.44,11.31-6.62,11.31h-15.46c-.98,0-1.89-.48-2.45-1.27-.56-.8-.7-1.82-.37-2.74l26.94-75.01c.43-1.19,1.56-1.99,2.82-1.99h16.96c1.26,0,2.38.79,2.82,1.97l26.88,73.46c.19.52.23,1.09.12,1.64-.43,2.07-2.13,4.18-11.51,4.18ZM411.82,49.39l-6.09-17.22-5.51,17.22h11.6Z"/>
          <path class="cls-5" d="M414.06,6l26.88,73.46c-.26,1.28-4.61,1.79-8.57,1.79-2.91,0-5.61-.27-6.36-.71-2.53-1.5-3.42-14.14-6.63-15.16-.82-.26-10.71-.42-18.45-.42-4.76,0-8.7.06-9.22.2-1.4,2.08-4.48,15.85-6.09,15.85h-15.46l26.94-75.01h16.96M396.11,52.39h19.95l-10.48-29.62-9.48,29.62M414.06,0h-16.96c-2.53,0-4.79,1.59-5.65,3.97l-26.94,75.01c-.66,1.84-.38,3.88.74,5.48,1.12,1.6,2.95,2.55,4.91,2.55h15.46c4.8,0,6.53-4.63,7.36-6.86.72-1.92,1.44-4.29,2.13-6.58.23-.77.52-1.71.8-2.59,1.25-.02,2.9-.03,5.03-.03,6.17,0,12.12.1,15.28.21.41,1.21.85,2.85,1.16,3.99,1.29,4.81,2.31,8.61,5.59,10.55.71.42,2.61,1.54,9.41,1.54s13.25-.78,14.45-6.57c.23-1.09.14-2.23-.24-3.28L419.7,3.94c-.87-2.37-3.12-3.94-5.63-3.94h0ZM404.33,46.39l1.54-4.82,1.71,4.82h-3.25Z"/>
        </g>
        <g>
          <path class="cls-2" d="M140.03,84.32c-9.08,0-11.48-2.96-11.79-5.66L103.93,6.96c-.31-.92-.16-1.93.4-2.71.56-.79,1.47-1.25,2.44-1.25h17.96c.36,0,.72.06,1.05.19l2.33.88c.88.33,1.55,1.05,1.82,1.95l10.65,35.81,9.93-36.01c.28-1.02,1.08-1.81,2.1-2.09l2.24-.62c.26-.07.53-.11.8-.11h17.96c.97,0,1.88.47,2.44,1.26.56.79.71,1.8.4,2.72l-25.42,74.04c-.12.35-.3.67-.54.95-1.78,2.12-7.91,2.35-10.46,2.35Z"/>
          <path class="cls-5" d="M173.62,6h0M173.62,6l-25.43,74.04c-.55.65-4.31,1.28-8.16,1.28-4.34,0-8.79-.8-8.82-3.26L106.77,6h17.96l2.34.88,13.64,45.84,12.72-46.1,2.24-.62h17.96M173.62,0h-17.96c-.54,0-1.07.07-1.59.22l-2.24.62c-2.04.56-3.63,2.15-4.19,4.19l-7.15,25.92-7.67-25.78c-.54-1.8-1.88-3.25-3.64-3.91l-2.34-.88c-.67-.25-1.39-.38-2.11-.38h-17.96c-1.93,0-3.75.93-4.88,2.5-1.13,1.57-1.43,3.59-.81,5.42l24.22,71.43c.75,4.73,5.43,6.54,6.94,7,2.1.64,4.72.97,7.78.97,9.89,0,12.05-2.57,12.76-3.42.47-.56.84-1.21,1.08-1.91l25.36-73.84c.26-.67.4-1.39.4-2.15,0-3.31-2.68-6-6-6h0ZM173.62,12h0,0Z"/>
        </g>
        <g>
          <path class="cls-2" d="M335.24,84.01c-1.66,0-3-1.34-3-3V21.83h-19.95c-.82,0-1.65-.36-2.22-.95-1.16-1.22-1.11-2.47-.83-8.48.09-1.95.23-4.87.14-5.66-.22-.86-.04-1.78.48-2.5.56-.78,1.47-1.24,2.43-1.24h60.86c.96,0,1.86.46,2.43,1.24.53.72.7,1.64.48,2.5-.09.79.04,3.72.14,5.66.28,6.01.34,7.26-.83,8.48-.57.59-1.4.95-2.22.95h-18.99c.04.39.07.8.1,1.22.76,13.87,1.62,41.04-.02,54.91-.48,4.02-2,6.05-4.53,6.05h-14.47Z"/>
          <path class="cls-5" d="M373.16,6c-.47,1.45.65,12.83,0,12.83h-22.95c.78,1.49.96,2.71,1.06,4.39.78,14.23,1.6,40.83,0,54.39-.12,1-.45,3.4-1.55,3.4h-14.47V18.83h-22.95c-.65,0,.47-11.38,0-12.83h60.86M373.16,0h-60.86c-1.92,0-3.72.92-4.85,2.47-.99,1.36-1.35,3.06-1.03,4.69.04.91-.08,3.51-.15,5.1-.3,6.39-.4,8.54,1.65,10.69,1.14,1.19,2.74,1.88,4.39,1.88h16.95v56.18c0,3.31,2.69,6,6,6h14.47c2.45,0,5.54-1.44,6.85-5.48.39-1.2.56-2.41.66-3.22,1.85-15.65.57-45.07.14-53.48h15.8c1.65,0,3.25-.69,4.39-1.88,2.05-2.15,1.95-4.3,1.65-10.69-.07-1.59-.19-4.19-.15-5.1.32-1.63-.05-3.33-1.03-4.69-1.13-1.55-2.93-2.47-4.85-2.47h0ZM373.16,12h0,0Z"/>
        </g>
        <g>
          <path class="cls-2" d="M6,84.01c-1.66,0-3-1.34-3-3V6c0-1.66,1.34-3,3-3h15.96c1.66,0,3,1.34,3,3v75.02c0,.8-.31,1.56-.87,2.12s-1.33.88-2.12.88H6Z"/>
          <path class="cls-5" d="M21.96,6v75.02s-15.96,0-15.96,0V6h15.96M21.96,0H6C2.69,0,0,2.69,0,6v75.01c0,3.31,2.69,6,6,6h15.97s0,0,0,0c1.59,0,3.12-.63,4.24-1.76,1.13-1.13,1.76-2.65,1.76-4.24V6c0-3.31-2.69-6-6.01-6h0Z"/>
        </g>
        <g>
          <path class="cls-3" d="M180.6,21.83c-.82,0-1.65-.36-2.22-.95-1.16-1.22-1.11-2.47-.83-8.48.09-1.95.23-4.87.14-5.66-.22-.86-.04-1.78.48-2.5.56-.78,1.47-1.24,2.43-1.24h54.87c1.38,0,2.59.94,2.91,2.29s-.3,2.74-1.53,3.37c-.91.48-3.82,3.46-5.75,5.43-5.61,5.73-7.78,7.74-10.1,7.74h-40.41Z"/>
          <path class="cls-5" d="M235.47,6c-2.98,1.55-12.19,12.83-14.47,12.83h-40.41c-.65,0,.47-11.38,0-12.83h54.87M235.47,0h-54.87c-1.92,0-3.72.92-4.85,2.47-.99,1.36-1.35,3.06-1.03,4.69.04.91-.08,3.51-.15,5.1-.3,6.39-.4,8.54,1.65,10.69,1.14,1.19,2.74,1.88,4.39,1.88h40.41c3.64,0,6.38-2.65,12.24-8.64,1.68-1.72,4.21-4.31,5.12-4.93,2.37-1.3,3.58-4.04,2.94-6.68-.66-2.69-3.06-4.58-5.83-4.58h0ZM235.47,12h0,0Z"/>
        </g>
        <g>
          <path class="cls-1" d="M193.04,84.32c-10.45,0-12.09-.54-13.16-1.24-2.72-1.79-2.52-6.21-2.29-11.34.07-1.51.15-3.4.04-4.07-.14-.87.1-1.76.67-2.43.57-.67,1.41-1.06,2.29-1.06h40.41c.28,0,.55.04.82.11,2.42.69,12.81,10.99,13.51,11.87,1.68,2.12,3.01,3.79,2.04,5.82-.53,1.11-1.66,1.79-2.94,1.79-.55,0-1.03-.12-1.54-.24-.42-.1-.89-.21-1.23-.21-1.4.02-4.33.12-8.02.25-8.48.29-21.29.74-30.59.74Z"/>
          <path class="cls-5" d="M221.01,67.19c1.14.32,10.71,9.25,11.98,10.85,1.76,2.21,1.98,2.74,1.44,2.74-.49,0-1.62-.45-2.77-.45-.02,0-.04,0-.07,0-4.62.07-25.21.99-38.55.99-6.1,0-10.67-.19-11.51-.74-1.99-1.31-.47-10.58-.93-13.39h40.41M221.01,61.19h-40.41c-1.76,0-3.44.77-4.58,2.12-1.13,1.33-1.62,3.09-1.35,4.82.06.56-.02,2.31-.07,3.48-.26,5.79-.51,11.25,3.63,13.98,1.79,1.18,3.83,1.73,14.81,1.73,9.36,0,22.21-.44,30.71-.74,3.6-.12,6.46-.22,7.85-.25.13.02.4.08.59.13.6.14,1.34.32,2.24.32,2.44,0,4.6-1.34,5.64-3.49,1.8-3.72-.62-6.77-2.39-8.99-1.29-1.62-5.79-5.77-6.68-6.59-6.19-5.68-7.15-5.95-8.36-6.3-.53-.15-1.09-.23-1.64-.23h0Z"/>
        </g>
        <g>
          <path class="cls-1" d="M201.7,51.59c-12.2,0-13.1-.6-13.83-1.07-2.72-1.79-2.52-6.21-2.29-11.34.07-1.51.15-3.4.04-4.07-.14-.87.1-1.76.67-2.43.57-.67,1.41-1.06,2.29-1.06h24.44c1.07,0,3,.47,3.93,3.6.7,2.34,1.85,12.94-1.72,15.3-.72.48-1.63,1.08-13.54,1.08Z"/>
          <path class="cls-5" d="M213.03,34.62c2.05,0,2.25,12.28.56,13.39-.59.39-6.22.58-11.89.58s-11.6-.2-12.18-.58c-1.99-1.31-.47-10.58-.93-13.39h24.44M213.03,28.62h-24.44c-1.76,0-3.44.77-4.58,2.12-1.13,1.33-1.62,3.1-1.35,4.82.06.56-.02,2.31-.07,3.48-.26,5.79-.51,11.25,3.63,13.98,1.38.91,2.38,1.57,15.48,1.57s13.81-.66,15.2-1.57c2.49-1.64,3.63-4.6,3.81-9.87.04-1.25.1-5.56-.87-8.79-1.6-5.32-5.61-5.73-6.81-5.73h0Z"/>
        </g>
      </g>
    </g>
    <g id="_4gLIHd.tif-2" data-name="4gLIHd.tif">
      <g>
        <path class="cls-2" d="M53.89,6c1.35.27,2.43.79,3.25,1.57l24.26,40.53.41-40.95,2.01-1.16h15.96c-1.4,8.78,2.22,72.54-.93,74.58-1.55,1-14.19.83-15.54-.54l-30.42-49.36v48.86c0,.1-1.39,1.48-1.5,1.48h-14.47V6h16.96Z"/>
        <path class="cls-2" d="M290.35,6c5.47,3.24,10.51,4.79,13.17,11.16,4.47,10.69,1.19,21.74-8.18,28.31,11.46,4.74,7.25,20.07,9,29.11.26,1.36,5.26,6.43,1.48,6.43h-16.46c-2.38,0,.4-28.62-7.48-28.62h-21.45v28.62h-15.96V6h45.89ZM260.42,38.57h21.45c.88,0,5.64-3.29,6.37-4.55,3.41-5.94-.26-15.19-7.37-15.19h-21.45c-.27.72,1,1.18,1,1.48v18.26Z"/>
        <path class="cls-2" d="M414.06,6l26.88,73.46c-.46,2.22-13.18,2.11-14.93,1.08-2.53-1.5-3.42-14.14-6.63-15.16-1.32-.42-26.29-.59-27.67-.22-1.4,2.08-4.48,15.85-6.09,15.85h-15.46l26.94-75.01h16.96ZM416.06,52.39l-10.48-29.62-9.48,29.62h19.95Z"/>
        <path class="cls-2" d="M124.73,6l2.34.88,13.64,45.84,12.72-46.1,2.24-.62h17.96l-25.43,74.04c-1.16,1.38-16.93,2.66-16.99-1.98L106.77,6h17.96Z"/>
        <path class="cls-2" d="M373.16,6c-.47,1.45.65,12.83,0,12.83h-22.95c.78,1.49.96,2.71,1.06,4.39.78,14.23,1.6,40.83,0,54.39-.12,1-.45,3.4-1.55,3.4h-14.47V18.83h-22.95c-.65,0,.47-11.38,0-12.83h60.86Z"/>
        <rect class="cls-2" x="6" y="6" width="15.97" height="75.02"/>
        <path class="cls-3" d="M235.47,6c-2.98,1.55-12.19,12.83-14.47,12.83h-40.41c-.65,0,.47-11.38,0-12.83h54.87Z"/>
        <path class="cls-1" d="M221.01,67.19c1.14.32,10.71,9.25,11.98,10.85,3.41,4.29,1.02,2.26-1.4,2.29-6.73.1-47.39,2-50.06.24-1.99-1.31-.47-10.58-.93-13.39h40.41Z"/>
        <path class="cls-1" d="M188.58,34.62h24.44c2.05,0,2.25,12.28.56,13.39-1.19.79-22.92.76-24.07,0-1.99-1.31-.47-10.58-.93-13.39Z"/>
      </g>
    </g>
  </g>
</svg>