<?xml version="1.0" encoding="UTF-8"?>
<svg id="Layer_1" data-name="Layer 1" xmlns="http://www.w3.org/2000/svg" viewBox="0 0 434.95 75.32">
  <defs>
    <style>
      .cls-1 {
        fill: #189dc4;
      }

      .cls-2 {
        fill: #fff;
      }

      .cls-3 {
        fill: #199dc4;
      }
    </style>
  </defs>
  <g id="_4gLIHd.tif" data-name="4gLIHd.tif">
    <g>
      <path class="cls-2" d="M47.89,0c1.35.27,2.43.79,3.25,1.57l24.26,40.53.41-40.95,2.01-1.16h15.96c-1.4,8.78,2.22,72.54-.93,74.58-1.55,1-14.19.83-15.54-.54l-30.42-49.36v48.86c0,.1-1.39,1.48-1.5,1.48h-14.47V0h16.96Z"/>
      <path class="cls-2" d="M284.35,0c5.47,3.24,10.51,4.79,13.17,11.16,4.47,10.69,1.19,21.74-8.18,28.31,11.46,4.74,7.25,20.07,9,29.11.26,1.36,5.26,6.43,1.48,6.43h-16.46c-2.38,0,.4-28.62-7.48-28.62h-21.45v28.62h-15.96V0h45.89ZM254.42,32.57h21.45c.88,0,5.64-3.29,6.37-4.55,3.41-5.94-.26-15.19-7.37-15.19h-21.45c-.27.72,1,1.18,1,1.48v18.26Z"/>
      <path class="cls-2" d="M408.06,0l26.88,73.46c-.46,2.22-13.18,2.11-14.93,1.08-2.53-1.5-3.42-14.14-6.63-15.16-1.32-.42-26.29-.59-27.67-.22-1.4,2.08-4.48,15.85-6.09,15.85h-15.46L391.1,0h16.96ZM410.06,46.39l-10.48-29.62-9.48,29.62h19.95Z"/>
      <path class="cls-2" d="M118.73,0l2.34.88,13.64,45.84L147.42.62l2.24-.62h17.96l-25.43,74.04c-1.16,1.38-16.93,2.66-16.99-1.98L100.77,0h17.96Z"/>
      <path class="cls-2" d="M367.16,0c-.47,1.45.65,12.83,0,12.83h-22.95c.78,1.49.96,2.71,1.06,4.39.78,14.23,1.6,40.83,0,54.39-.12,1-.45,3.4-1.55,3.4h-14.47V12.83h-22.95c-.65,0,.47-11.38,0-12.83h60.86Z"/>
      <rect class="cls-2" x="0" y="0" width="15.97" height="75.02"/>
      <path class="cls-3" d="M229.47,0c-2.98,1.55-12.19,12.83-14.47,12.83h-40.41c-.65,0,.47-11.38,0-12.83h54.87Z"/>
      <path class="cls-1" d="M215.01,61.19c1.14.32,10.71,9.25,11.98,10.85,3.41,4.29,1.02,2.26-1.4,2.29-6.73.1-47.39,2-50.06.24-1.99-1.31-.47-10.58-.93-13.39h40.41Z"/>
      <path class="cls-1" d="M182.58,28.62h24.44c2.05,0,2.25,12.28.56,13.39-1.19.79-22.92.76-24.07,0-1.99-1.31-.47-10.58-.93-13.39Z"/>
    </g>
  </g>
</svg>