<?xml version="1.0" encoding="UTF-8"?>
<svg id="Layer_2" data-name="Layer 2" xmlns="http://www.w3.org/2000/svg" viewBox="0 0 93.13 87.96">
  <defs>
    <style>
      .cls-1 {
        fill: #fff;
      }
    </style>
  </defs>
  <g id="Layer_1-2" data-name="Layer 1">
    <g>
      <path class="cls-1" d="M30.58,49.64c16.59-1.67,33.44-12.5,50.8-12.4l11.75,1.42c-8.2,1.05-16.42,1.78-24.5,3.68-11.05,2.6-21.4,8.7-32.72,9.87-5.23.54-32.21.27-34.89-2.59-4.69-5,8.28.01,8.94.01,6.51,0,14.37.63,20.62,0Z"/>
      <path class="cls-1" d="M93.13,49.65c.07,2.06-4.8,2.34-6.34,2.57-5.53.81-11.75.84-17.5,1.75-22.5,3.54-43.76,8.44-66.89,3.89l90.73-8.2Z"/>
      <path class="cls-1" d="M91.76,30.46l-48.82,8.19c-13.98-.3-28.12,1.07-41.91-1.36-.32-2.39,3.12-1.29,4.79-1.36,8.16-.33,16.66.54,24.75-.01,20.36-1.4,40.6-7.03,61.19-5.46Z"/>
      <path class="cls-1" d="M87.63,64.73l-14.44,2.72c-20.97-.47-42.41-.45-63.29-2.67-2.06-.22-4.24-.31-4.76-2.78,27.59-.33,54.94,1.65,82.49,2.74Z"/>
      <path class="cls-1" d="M87.64,23.58c-27.41,2.25-55.13,7.03-82.51,2.07,3.99-3.07,8.77-.32,13.07-.56,13.09-.73,26.72-2.52,39.82-2.92,8.54-.26,17.29-.34,25.84-.43,1.8-.02,3.02-1.22,3.78,1.84Z"/>
      <path class="cls-1" d="M83.51,70.22c.33,1.93-2.43,2-3.81,2.33-20.72,5.03-42.25,6.63-63.55,5.86,3.92-5.09,13.76-2.14,19.92-2.74,15.76-1.54,31.57-5.39,47.44-5.45Z"/>
      <path class="cls-1" d="M86.26,16.75c.25,2-3.6,2.46-4.93,2.6-4.94.53-10.02-.03-14.98.1L18.9,9.9c23.3-2.86,44.26,8.34,67.36,6.85Z"/>
      <path class="cls-1" d="M55.33.29c4.46.5,10.97,3.6,15.8,4.13.26,2.33-4.74,1.49-6.24,1.42-9.28-.45-20.87-1.71-30.25-2.75-2.06-.23-4.25-.3-4.75-2.8,8.13.66,17.47-.9,25.44,0Z"/>
      <path class="cls-1" d="M71.14,81.18c-.43,2.53-2.84,2.29-4.63,2.91-9.81,3.38-23.88,5.31-33.86,2.54l38.49-5.45Z"/>
    </g>
  </g>
</svg>