<?xml version="1.0" encoding="UTF-8"?>
<svg id="Layer_2" data-name="Layer 2" xmlns="http://www.w3.org/2000/svg" viewBox="0 0 94.45 94.23">
  <defs>
    <style>
      .cls-1 {
        fill: #fff;
      }
    </style>
  </defs>
  <g id="Layer_1-2" data-name="Layer 1">
    <path class="cls-1" d="M94.45,47.12c0,26.02-21.14,47.12-47.23,47.12S0,73.14,0,47.12,21.14,0,47.23,0s47.23,21.09,47.23,47.12ZM89.31,54.7c3.34-17.13-5-35.38-20.03-44.22C42.73-5.14,7.83,11.55,4.61,42.37c-.26,2.45-1.23,13.11,2.36,12.32,2.61-.57,17.61-20.02,23.17-21.69,9.83-2.95,11.31,8.41,17.73,7.79,4.2-.41,5.71-9.29,14.93-7.96,6.23.9,17.1,17.15,22.97,20.92,1.24.79,1.96,1.23,3.54.95ZM8.5,65.64c.91.62,2.59-.33,3.53-.94,7.03-4.55,15-21.17,25.38-16.46,1.87.85,8.59,9.43,9.49,9.43,5.31-4.79,9.32-12.27,17.77-9.74,3.7,1.11,13.5,15.09,17.67,17.25,3.09,1.6,6.51-1.64,3.52-5.55-1.88-2.46-21.64-22.26-23.2-22.71-7.17-2.08-9.62,13.3-20.6,6.68-3.76-2.27-6.38-9.28-11.17-5.88-2.84,4.92-23.13,19.84-23.43,23.47-.06.73.85,4.32,1.04,4.45ZM32.14,51.85c-1.32.39-19.69,17.85-19.68,19.26.02,4.38,12.4,12.81,16.3,14.64,19.06,8.94,41.08,2.79,53.51-13.76.26-1.2-.84-1.65-1.4-2.38-1.97-2.56-14.63-15.44-16.94-16.95-4.12-2.71-12.9,5.11-13.46,7.65-.35,1.6,3.32,3.72,4.34,5.42,5.9,9.87-9.44,18.85-15.25,8.26-4.41-8.03,4.24-11.68,3.8-13.68-.37-1.68-8.42-9.28-11.21-8.45ZM46.91,63.69c-7.77,3.92-2.11,15.04,3.51,9.44,3.33-3.32-.95-7.39-3.51-9.44Z"/>
  </g>
</svg>